<?xml version="1.0" encoding="UTF-8" standalone="no"?>
<!DOCTYPE svg PUBLIC "-//W3C//DTD SVG 1.1//EN" "http://www.w3.org/Graphics/SVG/1.1/DTD/svg11.dtd">
<svg width="100%" height="100%" viewBox="0 0 2363 2363" version="1.1" xmlns="http://www.w3.org/2000/svg" xmlns:xlink="http://www.w3.org/1999/xlink" xml:space="preserve" xmlns:serif="http://www.serif.com/" style="fill-rule:evenodd;clip-rule:evenodd;stroke-linecap:square;stroke-linejoin:round;stroke-miterlimit:1;">
    <g transform="matrix(0,1.011179,-1.011179,0,3691.279084,-594.576228)">
        <path d="M2866.26,1545.954L2866.26,2594.819C2315.549,2594.819 1868.441,3041.927 1868.441,3592.638L819.576,3592.638L2866.26,1545.954Z" style="fill:rgb(255,205,0);fill-opacity:0;stroke:black;stroke-width:103.02px;"/>
    </g>
    <g transform="matrix(0,1.8429,-1.8429,0,6084.574225,-2373.937366)">
        <path d="M2149.061,3269.898C2149.061,3055.122 2323.432,2880.751 2538.208,2880.751L2538.208,3269.898L2149.061,3269.898Z" style="fill:rgb(232,86,0);stroke:black;stroke-width:56.52px;"/>
    </g>
    <g transform="matrix(0,-1.011179,1.011179,0,-1329.074359,2956.780953)">
        <path d="M2866.26,1545.954L2866.26,2594.819C2315.549,2594.819 1868.441,3041.927 1868.441,3592.638L819.576,3592.638L2866.26,1545.954Z" style="fill:rgb(0,255,140);fill-opacity:0;stroke:black;stroke-width:103.02px;"/>
    </g>
    <g transform="matrix(0,-1.8429,1.8429,0,-3722.3695,4736.142091)">
        <path d="M2149.061,3269.898C2149.061,3055.122 2323.432,2880.751 2538.208,2880.751L2538.208,3269.898L2149.061,3269.898Z" style="fill:rgb(0,200,255);fill-opacity:0;stroke:black;stroke-width:56.52px;"/>
    </g>
</svg>
